<?xml version="1.0" encoding="UTF-8"?>
<svg viewBox="0 0 1137 815" version="1.1" xmlns="http://www.w3.org/2000/svg" xmlns:xlink="http://www.w3.org/1999/xlink">
    <title>svg-rocket-v2</title>
    <defs>
        <linearGradient x1="50%" y1="100%" x2="50%" y2="0.0362318841%" id="linearGradient-1">
            <stop stop-color="#808080" stop-opacity="0.25" offset="0%"></stop>
            <stop stop-color="#808080" stop-opacity="0.12" offset="54%"></stop>
            <stop stop-color="#808080" stop-opacity="0.1" offset="100%"></stop>
        </linearGradient>
        <linearGradient x1="50%" y1="99.9565972%" x2="50%" y2="0%" id="linearGradient-2">
            <stop stop-color="#808080" stop-opacity="0.25" offset="0%"></stop>
            <stop stop-color="#808080" stop-opacity="0.12" offset="54%"></stop>
            <stop stop-color="#808080" stop-opacity="0.1" offset="100%"></stop>
        </linearGradient>
        <linearGradient x1="49.9931239%" y1="100.004517%" x2="49.9931239%" y2="-0.00210674363%" id="linearGradient-3">
            <stop stop-color="#808080" stop-opacity="0.25" offset="0%"></stop>
            <stop stop-color="#808080" stop-opacity="0.12" offset="54%"></stop>
            <stop stop-color="#808080" stop-opacity="0.1" offset="100%"></stop>
        </linearGradient>
        <linearGradient x1="50.0210704%" y1="0%" x2="50.0210704%" y2="100%" id="linearGradient-4">
            <stop stop-color="#E0E0E0" offset="0%"></stop>
            <stop stop-color="#FCCC63" offset="31%"></stop>
            <stop stop-color="#F55F44" offset="77%"></stop>
        </linearGradient>
        <linearGradient x1="50%" y1="0%" x2="50%" y2="100%" id="linearGradient-5">
            <stop stop-color="#E0E0E0" offset="0%"></stop>
            <stop stop-color="#FCCC63" offset="31%"></stop>
            <stop stop-color="#F55F44" offset="77%"></stop>
        </linearGradient>
        <linearGradient x1="50%" y1="0%" x2="50%" y2="99.999973%" id="linearGradient-6">
            <stop stop-color="#E0E0E0" offset="0%"></stop>
            <stop stop-color="#FCCC63" offset="31%"></stop>
            <stop stop-color="#F55F44" offset="77%"></stop>
        </linearGradient>
        <linearGradient x1="49.971933%" y1="99.9126132%" x2="49.971933%" y2="-0.086983954%" id="linearGradient-7">
            <stop stop-color="#808080" stop-opacity="0.25" offset="0%"></stop>
            <stop stop-color="#808080" stop-opacity="0.12" offset="54%"></stop>
            <stop stop-color="#808080" stop-opacity="0.1" offset="100%"></stop>
        </linearGradient>
        <linearGradient x1="50.2887832%" y1="99.9990848%" x2="50.2887832%" y2="0.186964431%" id="linearGradient-8">
            <stop stop-color="#808080" stop-opacity="0.25" offset="0%"></stop>
            <stop stop-color="#808080" stop-opacity="0.12" offset="54%"></stop>
            <stop stop-color="#808080" stop-opacity="0.1" offset="100%"></stop>
        </linearGradient>
    </defs>
    <g id="Page-1" stroke="none" stroke-width="1" fill="none" fill-rule="evenodd">
        <g id="svg-rocket-v2">
            <path d="M992,708.36 C982.77716,709.153265 973.498361,709.029324 964.3,707.99 C863.18,696.81 725.48,699.99 613.23,769.54 C457.99,865.71 214.7,783.38 107.38,738.59 C25.38,704.38 -17.19,620.59 8.38,541.94 C8.74,540.83 9.11,539.72 9.5,538.61 C25.59,491.87 57.35,455.29 96.68,435.9 C130.96,419 181.01,383.71 203.28,315.9 C212.48,287.9 225.1,261.56 241.49,238.6 C285.38,177.11 377.26,85.54 535.28,86.1073518 C562.985592,86.2442211 590.483613,90.8987196 616.69,99.89 C674.42,119.56 726.56,159.55 766.32,214.99 C791.69,250.35 829.71,283.22 884.14,285.9 C959.68,289.64 1031.77,324.81 1085.85,387.4 C1087.41,389.2 1088.95,391.01 1090.49,392.84 C1186.78,507.55 1119.9,697.18 992,708.36 Z" id="Path" fill="#5162FF" fill-rule="nonzero"></path>
            <g id="Group" opacity="0.7" transform="translate(264.000000, 669.000000)" fill="url(#linearGradient-1)" fill-rule="nonzero">
                <circle id="Oval" cx="14.46" cy="14.31" r="13.8"></circle>
            </g>
            <circle id="Oval" fill="#000000" fill-rule="nonzero" opacity="0.2" cx="278.46" cy="683.31" r="13.18"></circle>
            <circle id="Oval" fill="#FFFFFF" fill-rule="nonzero" cx="204.11" cy="414.14" r="5.1"></circle>
            <circle id="Oval" fill="#FFFFFF" fill-rule="nonzero" cx="568.11" cy="710.14" r="5.1"></circle>
            <circle id="Oval" fill="#FFFFFF" fill-rule="nonzero" cx="353.11" cy="736.14" r="2.85"></circle>
            <circle id="Oval" fill="#FFFFFF" fill-rule="nonzero" cx="984.11" cy="598.14" r="2.85"></circle>
            <circle id="Oval" fill="#FFFFFF" fill-rule="nonzero" cx="821.11" cy="342.14" r="2.85"></circle>
            <circle id="Oval" fill="#FFFFFF" fill-rule="nonzero" cx="1052.11" cy="467.14" r="2.85"></circle>
            <circle id="Oval" fill="#FFFFFF" fill-rule="nonzero" cx="294.11" cy="247.14" r="5.1"></circle>
            <polygon id="Path" fill="#FFFFFF" fill-rule="nonzero" points="153.94 592.21 149.4 592.21 149.4 587.67 147.55 587.67 147.55 592.21 143.01 592.21 143.01 594.06 147.55 594.06 147.55 598.59 149.4 598.59 149.4 594.06 153.94 594.06"></polygon>
            <polygon id="Path" fill="#FFFFFF" fill-rule="nonzero" points="267.94 590.21 263.4 590.21 263.4 585.67 261.55 585.67 261.55 590.21 257.01 590.21 257.01 592.06 261.55 592.06 261.55 596.59 263.4 596.59 263.4 592.06 267.94 592.06"></polygon>
            <polygon id="Path" fill="#FFFFFF" fill-rule="nonzero" points="430.94 682.21 426.4 682.21 426.4 677.67 424.55 677.67 424.55 682.21 420.01 682.21 420.01 684.06 424.55 684.06 424.55 688.59 426.4 688.59 426.4 684.06 430.94 684.06"></polygon>
            <polygon id="Path" fill="#FFFFFF" fill-rule="nonzero" points="657.97 130.71 655.9 130.71 655.9 128.64 655.06 128.64 655.06 130.71 652.99 130.71 652.99 131.55 655.06 131.55 655.06 133.62 655.9 133.62 655.9 131.55 657.97 131.55"></polygon>
            <polygon id="Path" fill="#FFFFFF" fill-rule="nonzero" points="952.97 320.71 950.9 320.71 950.9 318.64 950.06 318.64 950.06 320.71 947.99 320.71 947.99 321.55 950.06 321.55 950.06 323.62 950.9 323.62 950.9 321.55 952.97 321.55"></polygon>
            <polygon id="Path" fill="#FFFFFF" fill-rule="nonzero" points="778.97 444.71 776.9 444.71 776.9 442.64 776.06 442.64 776.06 444.71 773.99 444.71 773.99 445.55 776.06 445.55 776.06 447.62 776.9 447.62 776.9 445.55 778.97 445.55"></polygon>
            <polygon id="Path" fill="#FFFFFF" fill-rule="nonzero" points="70.97 522.71 68.9 522.71 68.9 520.64 68.06 520.64 68.06 522.71 65.99 522.71 65.99 523.55 68.06 523.55 68.06 525.62 68.9 525.62 68.9 523.55 70.97 523.55"></polygon>
            <polygon id="Path" fill="#FFFFFF" fill-rule="nonzero" points="155.97 692.71 153.9 692.71 153.9 690.64 153.06 690.64 153.06 692.71 150.99 692.71 150.99 693.55 153.06 693.55 153.06 695.62 153.9 695.62 153.9 693.55 155.97 693.55"></polygon>
            <polygon id="Path" fill="#FFFFFF" fill-rule="nonzero" points="422.97 155.71 420.9 155.71 420.9 153.64 420.06 153.64 420.06 155.71 417.99 155.71 417.99 156.55 420.06 156.55 420.06 158.62 420.9 158.62 420.9 156.55 422.97 156.55"></polygon>
            <polygon id="Path" fill="#FFFFFF" fill-rule="nonzero" points="296.97 454.71 294.9 454.71 294.9 452.64 294.06 452.64 294.06 454.71 291.99 454.71 291.99 455.55 294.06 455.55 294.06 457.62 294.9 457.62 294.9 455.55 296.97 455.55"></polygon>
            <polygon id="Path" fill="#FFFFFF" fill-rule="nonzero" points="323.97 368.71 321.9 368.71 321.9 366.64 321.06 366.64 321.06 368.71 318.99 368.71 318.99 369.55 321.06 369.55 321.06 371.62 321.9 371.62 321.9 369.55 323.97 369.55"></polygon>
            <g id="Group" opacity="0.7" transform="translate(737.000000, 544.000000)" fill="url(#linearGradient-2)" fill-rule="nonzero">
                <circle id="Oval" cx="12.15" cy="11.65" r="11.52"></circle>
            </g>
            <circle id="Oval" fill="#000000" fill-rule="nonzero" opacity="0.2" cx="749.15" cy="555.65" r="10.67"></circle>
            <circle id="Oval" fill="#000000" fill-rule="nonzero" opacity="0.2" cx="777.88" cy="630.76" r="11.93"></circle>
            <g id="Group" opacity="0.7" transform="translate(380.000000, 0.000000)" fill="url(#linearGradient-3)" fill-rule="nonzero">
                <path d="M290.970838,307.03 C291.052464,281.967068 285.047037,257.259026 273.47,235.03 C267.98,224.59 262.97,218.11 259.11,214.12 C256.086735,210.926099 251.362938,210.016748 247.37,211.86 C245.812834,212.412249 244.405671,213.319544 243.26,214.51 C238.05,219.91 233.34,227.05 229.26,234.64 C217.087698,257.398893 210.774419,282.830723 210.89,308.64 L210.89,324.12 L200.96,324.12 L200.96,144.11 C200.96,106.39 192.52,69.18 175.96,36.18 C168.12,20.54 160.96,10.82 155.47,4.85 C152.773821,1.77634222 148.883613,0.0139935391 144.795,0.0139935391 C140.706387,0.0139935391 136.816179,1.77634222 134.12,4.85 C126.68,12.94 119.96,23.64 114.12,35.01 C96.73,68.73 87.9,107.01 87.9,145.83 L87.9,324.05 L79.32,324.05 L79.32,307.82 C79.4289544,282.027428 73.1158232,256.613381 60.95,233.87 C56.84,226.28 52.13,219.14 46.95,213.74 C43.861264,210.459706 38.9951384,209.575693 34.95,211.56 L35.31,211.75 C34.0541145,212.308854 32.916945,213.103176 31.96,214.09 C28.11,218.09 23.1,224.56 17.61,235 C6.03296307,257.229026 0.0275363363,281.937068 0.109162079,307 L0.109162079,576 L30.75,576 L27.37,598.11 L27.37,664.24 L52.43,664.24 L52.43,598.11 L49.08,575.99 L79.28,575.99 L79.28,330.99 L87.86,330.99 L87.86,574.93 L112.33,574.93 L108.82,598.11 L108.82,664.24 L133.88,664.24 L133.88,598.11 L130.37,574.9 L163.37,574.9 L159.84,598.11 L159.84,664.24 L184.9,664.24 L184.9,598.11 L181.39,574.9 L200.93,574.9 L200.93,331.02 L210.86,331.02 L210.86,576.39 L218.91,576.39 L218.91,576.02 L245.53,576.02 L242.19,598.11 L242.19,664.24 L267.25,664.24 L267.25,598.11 L263.9,575.99 L290.970838,575.99 L290.970838,307.03 Z" id="Path"></path>
            </g>
            <polygon id="Path" fill="#535461" fill-rule="nonzero" points="437.4 585.25 413.67 585.25 417.91 556.44 433.16 556.44"></polygon>
            <g id="Group" opacity="0.1" transform="translate(416.000000, 559.000000)" fill="#000000" fill-rule="nonzero">
                <polygon id="Path" points="0.73 8.88 18.34 8.88 17.16 0.83 1.91 0.83"></polygon>
            </g>
            <polygon id="Path" fill="#535461" fill-rule="nonzero" points="640.75 585.25 617.03 585.25 621.26 556.44 636.52 556.44"></polygon>
            <g id="Group" opacity="0.1" transform="translate(620.000000, 559.000000)" fill="#000000" fill-rule="nonzero">
                <polygon id="Path" points="0.08 8.88 17.7 8.88 16.52 0.83 1.26 0.83"></polygon>
            </g>
            <polygon id="Path" fill="#535461" fill-rule="nonzero" points="514.5 585.25 490.78 585.25 495.01 556.44 510.27 556.44"></polygon>
            <g id="Group" opacity="0.1" transform="translate(493.000000, 559.000000)" fill="#000000" fill-rule="nonzero">
                <polygon id="Path" points="0.83 8.88 18.45 8.88 17.27 0.83 2.01 0.83"></polygon>
            </g>
            <polygon id="Path" fill="#535461" fill-rule="nonzero" points="562.8 585.25 539.08 585.25 543.31 556.44 558.56 556.44"></polygon>
            <g id="Group" opacity="0.1" transform="translate(542.000000, 559.000000)" fill="#000000" fill-rule="nonzero">
                <polygon id="Path" points="0.13 8.88 17.75 8.88 16.56 0.83 1.31 0.83"></polygon>
            </g>
            <rect id="Rectangle" fill="#535461" fill-rule="nonzero" x="437.4" y="318.35" width="169.46" height="6.78"></rect>
            <path d="M633.05,211.27 C631.239557,209.27003 628.667699,208.129064 625.97,208.129064 C623.272301,208.129064 620.700443,209.27003 618.89,211.27 C613.96,216.53 609.5,223.48 605.61,230.87 C594.071126,253.108694 588.103571,277.816226 588.22,302.87 L588.22,563.71 L663.22,563.71 L663.22,301.77 C663.31388,277.409439 657.635503,253.373148 646.65,231.63 C641.44,221.47 636.7,215.11 633.05,211.27 Z" id="Path" fill="#E0E0E0" fill-rule="nonzero"></path>
            <path d="M417.98,211.27 C419.790443,209.27003 422.362301,208.129064 425.06,208.129064 C427.757699,208.129064 430.329557,209.27003 432.14,211.27 C437.08,216.53 441.53,223.48 445.43,230.87 C456.96436,253.110382 462.931643,277.816785 462.82,302.87 L462.82,563.71 L387.82,563.71 L387.82,301.77 C387.72612,277.409439 393.404497,253.373148 404.39,231.63 C409.59,221.47 414.33,215.11 417.98,211.27 Z" id="Path" fill="#E0E0E0" fill-rule="nonzero"></path>
            <polygon id="Path" fill="#535461" fill-rule="nonzero" points="388.25 307.33 406.05 307.42 406.05 329.36 388.25 329.36"></polygon>
            <polygon id="Path" fill="#535461" fill-rule="nonzero" points="445.02 307.33 462.82 307.42 462.82 329.36 445.02 329.36"></polygon>
            <polygon id="Path" fill="#535461" fill-rule="nonzero" points="588.22 307.33 606.01 307.42 606.01 329.36 588.22 329.36"></polygon>
            <polygon id="Path" fill="#535461" fill-rule="nonzero" points="644.99 307.33 662.78 307.42 662.78 329.36 644.99 329.36"></polygon>
            <g id="Group" opacity="0.1" transform="translate(420.000000, 207.000000)" fill="#000000" fill-rule="nonzero">
                <path d="M25.43,23.53 C21.53,16.14 17.08,9.19 12.14,3.93 C9.27318168,0.750888507 4.63561337,-0.120957963 0.81,1.8 C1.88200826,2.33493267 2.85040261,3.05614944 3.67,3.93 C8.6,9.19 13.06,16.14 16.95,23.53 C28.4896267,45.7684129 34.4572274,70.476133 34.34,95.53 L34.34,356.35 L42.82,356.35 L42.82,95.54 C42.9336604,70.4833595 36.9663089,45.77324 25.43,23.53 Z" id="Path"></path>
            </g>
            <g id="Group" opacity="0.1" transform="translate(587.000000, 208.000000)" fill="#000000" fill-rule="nonzero">
                <path d="M25.39,23.25 C29.28,15.86 33.74,8.91 38.67,3.65 C39.5917502,2.65383855 40.7081065,1.85741359 41.95,1.31 C38.1914875,-0.334936668 33.8021873,0.607353462 31.05,3.65 C26.11,8.91 21.65,15.86 17.76,23.25 C6.22563984,45.4903819 0.258357216,70.1967849 0.37,95.25 L0.37,356.11 L8,356.11 L8,95.27 C7.88033026,70.2094686 13.8479779,45.4946911 25.39,23.25 L25.39,23.25 Z" id="Path"></path>
            </g>
            <path d="M425.86,649.65 L425.21,649.65 C418.836634,649.65 413.67,644.483366 413.67,638.11 L413.67,585.25 L437.4,585.25 L437.4,638.11 C437.4,641.170598 436.184182,644.105842 434.020012,646.270012 C431.855842,648.434182 428.920598,649.65 425.86,649.65 Z" id="Path" fill="url(#linearGradient-4)" fill-rule="nonzero"></path>
            <path d="M502.97,649.65 L502.31,649.65 C495.94054,649.644481 490.78,644.479463 490.78,638.11 L490.78,585.25 L514.5,585.25 L514.5,638.11 C514.5,644.479463 509.33946,649.644481 502.97,649.65 Z" id="Path" fill="url(#linearGradient-5)" fill-rule="nonzero"></path>
            <path d="M551.26,649.65 L550.59,649.65 C544.228353,649.633462 539.08,644.471669 539.08,638.11 L539.08,585.25 L562.8,585.25 L562.8,638.11 C562.8,644.483366 557.633366,649.65 551.26,649.65 Z" id="Path" fill="url(#linearGradient-5)" fill-rule="nonzero"></path>
            <path d="M629.22,649.650017 L628.59,649.650017 C625.525938,649.65531 622.585553,648.441837 620.417056,646.277091 C618.248558,644.112346 617.03,641.174067 617.03,638.11 L617.03,585.25 L640.75,585.25 L640.75,638.11 C640.75,644.479463 635.58946,649.644481 629.22,649.650017 Z" id="Path" fill="url(#linearGradient-6)" fill-rule="nonzero"></path>
            <path d="M534.93,6.75 C532.42194,3.76585905 528.723136,2.0428779 524.825,2.0428779 C520.926864,2.0428779 517.22806,3.76585905 514.72,6.75 C507.72,14.63 501.32,25.04 495.72,36.12 C479.26,68.96 470.9,106.24 470.9,144.04 L470.9,562.65 L577.9,562.65 L577.9,142.36 C577.9,105.63 569.9,69.36 554.26,37.26 C546.91,22.03 540.14,12.56 534.93,6.75 Z" id="Path" fill="#EEEEEE" fill-rule="nonzero"></path>
            <rect id="Rectangle" fill="#535461" fill-rule="nonzero" x="495.79" y="53.25" width="55.84" height="25.59" rx="11"></rect>
            <g id="Group" opacity="0.1" transform="translate(471.000000, 158.000000)" fill="#000000" fill-rule="nonzero">
                <rect id="Rectangle" x="0.48" y="0.35" width="105.91" height="4.11"></rect>
            </g>
            <path d="M762.04,311.33 L762.04,311.33 C759.262782,307.682964 755.788921,304.623791 751.82,302.33 L751.82,302.33 C739.321575,295.123114 723.65074,296.499683 712.600172,305.775177 C701.549604,315.050671 697.477523,330.245676 702.408863,343.804132 C707.340203,357.362588 720.222604,366.391085 734.65,366.4 C735.38,366.4 736.11,366.4 736.82,366.32 C749.425053,365.524655 760.574655,357.87026 765.846333,346.39292 C771.118012,334.91558 769.659763,321.47025 762.05,311.39 L762.04,311.33 Z" id="Path" fill="url(#linearGradient-7)" fill-rule="nonzero"></path>
            <path d="M767.090022,332.01 C767.087266,349.133678 753.779474,363.308227 736.69,364.39 C736.02,364.39 735.33,364.460006 734.64,364.460006 C720.988778,364.468136 708.791242,355.934272 704.120095,343.107101 C699.448947,330.27993 703.302511,315.900891 713.762239,307.128774 C724.221967,298.356658 739.052394,297.066251 750.87,303.9 L750.87,303.9 C754.628467,306.080799 757.912867,308.991199 760.53,312.46 L760.53,312.46 C764.794021,318.084855 767.098162,324.951615 767.090022,332.01 Z" id="Path" fill="#000000" fill-rule="nonzero" opacity="0.2"></path>
            <path d="M726.65,311.42 C724.972394,312.141975 723.354084,312.994596 721.81,313.97 C720.779194,314.533091 719.892722,315.327151 719.22,316.29 C718.537938,317.281437 718.514318,318.584495 719.16,319.6 C719.95,320.68 721.47,320.84 722.81,320.92 C724.217149,321.099237 725.646639,320.955604 726.99,320.5 C727.897057,320.05137 728.721958,319.452978 729.43,318.73 L732.22,316.2 C733.22,315.32 734.22,314.11 733.83,312.87 C733.361346,311.97025 732.469714,311.368304 731.46,311.27 C729.054836,310.801374 726.561335,311.239518 724.46,312.5" id="Path" fill="#000000" fill-rule="nonzero" opacity="0.1"></path>
            <g id="Group" opacity="0.1" transform="translate(713.000000, 343.000000)" fill="#000000" fill-rule="nonzero">
                <circle id="Oval" cx="2" cy="1.82" r="1.71"></circle>
            </g>
            <g id="Group" opacity="0.1" transform="translate(743.000000, 327.000000)" fill="#000000" fill-rule="nonzero">
                <circle id="Oval" cx="6.72" cy="7" r="6.26"></circle>
            </g>
            <g id="Group" opacity="0.1" transform="translate(743.000000, 303.000000)" fill="#000000" fill-rule="nonzero">
                <path d="M17.59,9.46 L17.59,9.46 C17.5392181,14.0170245 13.9191873,17.7312499 9.36497006,17.8990484 C4.81075283,18.0668469 0.927209737,14.6290879 0.541216933,10.0881563 C0.15522413,5.54722458 3.40280162,1.50329903 7.92,0.9 L7.92,0.9 C11.6820667,3.07971736 14.9699432,5.99018503 17.59,9.46 L17.59,9.46 Z" id="Path"></path>
            </g>
            <g id="Group" opacity="0.1" transform="translate(736.000000, 347.000000)" fill="#000000" fill-rule="nonzero">
                <path d="M25.17,3.69 C19.5154518,11.7389729 10.5077315,16.7800582 0.69,17.39 C0.69,16.94 0.63,16.49 0.63,16.03 C0.635551725,10.2224093 3.91197404,4.91319401 9.1005099,2.30412585 C14.2890458,-0.304942302 20.5047797,0.231118577 25.17,3.69 Z" id="Path"></path>
            </g>
            <path d="M318.76,496.58 L318.76,496.58 C316.82368,494.019745 314.396375,491.871205 311.62,490.26 L311.62,490.26 C302.884689,485.135128 291.872465,486.045265 284.097053,492.534713 C276.321641,499.024161 273.4567,509.696065 276.936682,519.207095 C280.416663,528.718126 289.492501,535.021031 299.62,534.960439 C300.13,534.960439 300.62,534.960439 301.14,534.91 C309.91727,534.319181 317.667891,528.973612 321.338786,520.978985 C325.009682,512.984358 324.012483,503.622049 318.74,496.58 L318.76,496.58 Z" id="Path" fill="url(#linearGradient-8)" fill-rule="nonzero"></path>
            <path d="M322.280049,511.01 C322.27747,522.956645 312.99279,532.84542 301.07,533.6 C300.6,533.6 300.07,533.6 299.64,533.6 C290.123634,533.59768 281.624521,527.644558 278.370346,518.701875 C275.116172,509.759192 277.801654,499.736081 285.090963,493.618303 C292.380272,487.500525 302.717246,486.594137 310.96,491.35 L310.96,491.35 C313.586036,492.878135 315.878102,494.91855 317.7,497.35 L317.7,497.35 C320.681291,501.278962 322.290335,506.077989 322.280049,511.01 Z" id="Path" fill="#000000" fill-rule="nonzero" opacity="0.2"></path>
            <path d="M294.06,496.65 C292.890652,497.1479 291.763622,497.739842 290.69,498.42 C289.974253,498.819452 289.356061,499.37275 288.88,500.04 C288.42621,500.743141 288.42621,501.646859 288.88,502.35 C289.551608,503.013007 290.479588,503.349125 291.42,503.27 C292.402719,503.396815 293.401421,503.297629 294.34,502.98 C294.975823,502.666013 295.553973,502.24677 296.05,501.74 L297.99,499.98 C298.67,499.36 299.41,498.52 299.11,497.66 C298.798626,497.019532 298.170176,496.592947 297.46,496.54 C295.786194,496.212194 294.050295,496.518739 292.59,497.4" id="Path" fill="#000000" fill-rule="nonzero" opacity="0.1"></path>
            <g id="Group" opacity="0.1" transform="translate(284.000000, 518.000000)" fill="#000000" fill-rule="nonzero">
                <circle id="Oval" cx="1.93" cy="1.94" r="1.19"></circle>
            </g>
            <g id="Group" opacity="0.1" transform="translate(305.000000, 508.000000)" fill="#000000" fill-rule="nonzero">
                <circle id="Oval" cx="5.16" cy="4.4" r="4.37"></circle>
            </g>
            <g id="Group" opacity="0.1" transform="translate(305.000000, 491.000000)" fill="#000000" fill-rule="nonzero">
                <path d="M12.71,6.37 L12.71,6.37 C12.6848096,9.58004119 10.1374602,12.2015889 6.92946475,12.3189089 C3.72146926,12.4362288 0.989435022,10.0077539 0.729836027,6.80812777 C0.470237032,3.60850164 2.77505038,0.771366341 5.96,0.37 L5.96,0.37 C8.58963665,1.89704897 10.8851802,3.9375321 12.71,6.37 Z" id="Path"></path>
            </g>
            <g id="Group" opacity="0.1" transform="translate(301.000000, 521.000000)" fill="#000000" fill-rule="nonzero">
                <path d="M17.15,3.04 C13.204524,8.65581425 6.91997512,12.1733955 0.07,12.6 C0.07,12.29 0.07,11.97 0.07,11.6 C0.07369593,7.54832107 2.35931475,3.84422777 5.97900958,2.02380882 C9.59870441,0.203389866 13.9351419,0.577114889 17.19,2.99 L17.15,3.04 Z" id="Path"></path>
            </g>
            <polyline id="Path" points="838.69 539.42 860.49 551.02 843.47 570.06"></polyline>
            <circle id="Oval" fill="#FFFFFF" fill-rule="nonzero" cx="955.9" cy="428.23" r="1.84"></circle>
        </g>
    </g>
</svg>